<svg width="101" height="32" viewBox="0 0 101 32" fill="none" xmlns="http://www.w3.org/2000/svg">
<g clip-path="url(#clip0_1_184)">
<path d="M53.1877 7.91955C53.1877 9.04397 52.2817 9.94938 51.1573 9.94938C50.0328 9.94938 49.1274 9.04397 49.1274 7.91955C49.1274 6.79512 50.0019 5.88971 51.1573 5.88971C52.3135 5.92091 53.1877 6.82663 53.1877 7.91955ZM44.8175 12.011V12.5108C44.8175 12.5108 43.8498 11.261 41.7884 11.261C38.3846 11.261 35.7295 13.8534 35.7295 17.4447C35.7295 21.0052 38.3534 23.6284 41.7884 23.6284C43.881 23.6284 44.8175 22.348 44.8175 22.348V22.8787C44.8175 23.1286 45.0054 23.3155 45.255 23.3155H47.7843V11.5724H45.255C45.0054 11.5733 44.8175 11.7923 44.8175 12.011ZM44.8175 19.5373C44.3496 20.2246 43.4123 20.818 42.2882 20.818C40.2896 20.818 38.759 19.5688 38.759 17.4447C38.759 15.321 40.2896 14.0718 42.2882 14.0718C43.3814 14.0718 44.3808 14.6964 44.8175 15.3522V19.5373ZM49.6584 11.5733H52.6564V23.3164H49.6584V11.5733ZM94.4436 11.2607C92.3822 11.2607 91.4138 12.5105 91.4138 12.5105V5.92092H88.4158V23.3164H90.9458C91.1957 23.3164 91.3826 23.0977 91.3826 22.879V22.3483C91.3826 22.3483 92.351 23.6287 94.4117 23.6287C97.8162 23.6287 100.471 21.0061 100.471 17.4457C100.471 13.8852 97.8162 11.2607 94.4436 11.2607ZM93.9437 20.7865C92.7878 20.7865 91.8824 20.1937 91.4138 19.5061V15.321C91.8824 14.6964 92.8817 14.0406 93.9437 14.0406C95.9424 14.0406 97.4727 15.2898 97.4727 17.4135C97.4727 19.5373 95.9427 20.7865 93.9437 20.7865ZM86.8546 16.3521V23.3476H83.8561V16.6953C83.8561 14.7594 83.2314 13.9782 81.5461 13.9782C80.6407 13.9782 79.7034 14.4468 79.1091 15.1341V23.3168H76.1117V11.5736H78.4845C78.7344 11.5736 78.9219 11.7923 78.9219 12.011V12.5108C79.7964 11.6048 80.9517 11.261 82.107 11.261C83.4189 11.261 84.5122 11.6363 85.3867 12.3857C86.4481 13.2603 86.8546 14.3844 86.8546 16.3521ZM68.8339 11.2607C66.7732 11.2607 65.8047 12.5105 65.8047 12.5105V5.92092H62.8068V23.3164H65.3361C65.586 23.3164 65.7735 23.0977 65.7735 22.879V22.3483C65.7735 22.3483 66.742 23.6287 68.8027 23.6287C72.2071 23.6287 74.8616 21.0061 74.8616 17.4457C74.8928 13.8849 72.2384 11.2607 68.8339 11.2607ZM68.3341 20.7865C67.1788 20.7865 66.2734 20.1937 65.8047 19.5061V15.321C66.2734 14.6964 67.2727 14.0406 68.3341 14.0406C70.3333 14.0406 71.8633 15.2898 71.8633 17.4135C71.8633 19.5373 70.3333 20.7865 68.3341 20.7865ZM60.2144 11.2607C61.1198 11.2607 61.5885 11.4173 61.5885 11.4173V14.1965C61.5885 14.1965 59.09 13.3532 57.5288 15.1338V23.3473H54.5302V11.5733H57.0602C57.3101 11.5733 57.497 11.792 57.497 12.0107V12.5105C58.0598 11.8544 59.2778 11.2607 60.2144 11.2607ZM29.0778 22.2544C28.9218 21.8797 28.7655 21.4738 28.6095 21.13C28.3593 20.5681 28.1094 20.0368 27.8913 19.5373L27.8601 19.5061C25.7048 14.8212 23.3942 10.0745 20.9578 5.39022L20.8642 5.20239C20.608 4.71645 20.3583 4.2271 20.1151 3.73446C19.8025 3.17194 19.4905 2.57915 18.9907 2.01662C17.9914 0.7674 16.5547 0.0800781 15.0247 0.0800781C13.4628 0.0800781 12.0576 0.767404 11.0274 1.95392C10.5588 2.51582 10.215 3.10923 9.90298 3.67176C9.65923 4.16408 9.40952 4.65343 9.15388 5.13968L9.05997 5.3275C6.65512 10.0118 4.31298 14.7588 2.15804 19.4433L2.12654 19.5054C1.90814 20.0059 1.65792 20.5366 1.40801 21.0982C1.25202 21.442 1.09602 21.8167 0.940025 22.2226C0.533809 23.3779 0.408694 24.4711 0.565314 25.5959C0.908819 27.9383 2.47003 29.9051 4.62529 30.7803C5.43741 31.1241 6.28073 31.2801 7.15493 31.2801C7.40484 31.2801 7.71684 31.2489 7.96706 31.2174C8.99789 31.0926 10.0596 30.7494 11.0904 30.156C12.3708 29.4374 13.5889 28.4072 14.9629 26.9081C16.3369 28.4072 17.5861 29.4374 18.8354 30.156C19.8665 30.7494 20.9279 31.0926 21.9584 31.2174C22.2083 31.2492 22.5209 31.2801 22.7708 31.2801C23.6453 31.2801 24.5196 31.1241 25.3002 30.7803C27.4866 29.9051 29.0166 27.9071 29.3604 25.5959C29.6085 24.503 29.4837 23.4104 29.0778 22.2544ZM14.9932 23.8783C13.3065 21.7546 12.2133 19.756 11.8389 18.07C11.6829 17.3514 11.6514 16.7268 11.7453 16.1646C11.8074 15.6648 11.9952 15.2274 12.2451 14.8527C12.8385 14.01 13.8378 13.4787 14.9935 13.4787C16.1494 13.4787 17.1799 13.9785 17.7421 14.8527C17.992 15.2274 18.1792 15.6651 18.2423 16.1646C18.3355 16.7271 18.3043 17.3826 18.1483 18.07C17.7724 19.7248 16.6792 21.7237 14.9932 23.8783ZM27.4535 25.3463C27.2351 26.9702 26.1419 28.376 24.6119 29.0006C23.8625 29.3126 23.0501 29.4065 22.2386 29.3126C21.458 29.2187 20.6767 28.9688 19.8652 28.5008C18.7408 27.8756 17.6167 26.9081 16.3048 25.4711C18.3658 22.9417 19.615 20.6302 20.0836 18.5695C20.3023 17.601 20.3339 16.7268 20.2396 15.9144C20.1152 15.1338 19.8337 14.4153 19.3966 13.7906C18.4279 12.3848 16.8036 11.5733 14.9928 11.5733C13.182 11.5733 11.5578 12.4166 10.5897 13.7906C10.1526 14.4153 9.87115 15.1338 9.74635 15.9144C9.62155 16.7268 9.65244 17.6322 9.90235 18.5695C10.3706 20.6302 11.6511 22.9726 13.6809 25.5023C12.4005 26.939 11.2449 27.9074 10.1204 28.532C9.30831 29.0007 8.52802 29.2506 7.74741 29.3438C6.90441 29.4378 6.09197 29.3126 5.37376 29.0319C3.84375 28.4072 2.75052 27.0014 2.53213 25.3775C2.43853 24.5969 2.50062 23.8162 2.81323 22.9417C2.90652 22.6291 3.06314 22.3171 3.21914 21.9424C3.43784 21.4426 3.68713 20.9113 3.93735 20.3806L3.96886 20.3185C6.12349 15.6648 8.43442 10.9178 10.8393 6.29593L10.9329 6.10811C11.1831 5.64012 11.433 5.14031 11.6826 4.67169C11.9325 4.17188 12.2133 3.70326 12.5571 3.29705C13.2129 2.54826 14.0871 2.14173 15.0555 2.14173C16.024 2.14173 16.8982 2.54826 17.554 3.29705C17.8978 3.7042 18.1786 4.17281 18.4285 4.67169C18.6787 5.14031 18.9286 5.64012 19.1779 6.10811L19.2718 6.29593C21.64 10.937 23.9202 15.6224 26.1113 20.3497V20.3809C26.3616 20.8813 26.58 21.4429 26.8299 21.9434C26.9859 22.3174 27.1422 22.6294 27.2358 22.9421C27.4851 23.7532 27.5787 24.5345 27.4535 25.3463Z" fill="#4F481F"/>
</g>
<defs>
<clipPath id="clip0_1_184">
<rect width="100" height="31.2" fill="white" transform="translate(0.5 0.0800781)"/>
</clipPath>
</defs>
</svg>
