<svg width="101" height="91" viewBox="0 0 101 91" fill="none" xmlns="http://www.w3.org/2000/svg">
<g clip-path="url(#clip0_1_189)">
<path fill-rule="evenodd" clip-rule="evenodd" d="M51.1863 81.6934L55.2852 79.9904C55.0575 79.4162 54.3842 79.0201 53.5823 79.0201C52.5575 79.0152 51.1367 79.9211 51.1863 81.6934ZM55.9981 83.3419L57.5624 84.3815C57.0575 85.129 55.8446 86.4161 53.7407 86.4161C51.1367 86.4161 49.2556 84.4013 49.2556 81.832C49.2556 79.1043 51.1516 77.2479 53.5179 77.2479C55.6912 77.3221 57.0426 78.7231 57.6515 80.6835L51.513 83.2181C51.9833 84.1389 52.711 84.6092 53.7357 84.6092C54.7555 84.6092 55.4684 84.1043 55.9882 83.3419H55.9981ZM46.0378 86.1389H48.0526V72.6737H46.0378V86.1389ZM42.7507 81.8468C42.7507 80.233 41.6715 79.0498 40.3002 79.0498C38.9141 79.0498 37.7458 80.233 37.7458 81.8468C37.7458 83.4458 38.9091 84.6092 40.3002 84.6092C41.6764 84.6092 42.7507 83.4458 42.7507 81.8468ZM44.5229 77.5251V85.7429C44.5229 89.129 42.5279 90.52 40.1665 90.52C37.9438 90.52 36.6072 89.025 36.1022 87.8121L37.8547 87.0844C38.1666 87.8319 38.9339 88.7181 40.1665 88.7181C42.419 88.4621 42.617 87.0052 42.617 85.3666H42.5428C42.0923 85.9211 41.221 86.4112 40.1269 86.4112C37.8349 86.4112 35.7309 84.4161 35.7309 81.8419C35.7309 79.2528 37.8299 77.238 40.1269 77.238C41.221 77.238 42.0923 77.7231 42.5428 78.2627H42.6121V77.5152C42.6121 77.5103 44.5229 77.5103 44.5229 77.5103V77.5251ZM22.5429 81.832C22.5429 80.1835 21.3647 79.0548 20.0034 79.0548C18.637 79.0548 17.4638 80.1835 17.4638 81.832C17.4638 83.4656 18.642 84.6092 20.0034 84.6092C21.3647 84.6092 22.5429 83.4607 22.5429 81.832ZM24.5231 81.832C24.5231 84.4706 22.4934 86.4161 20.0034 86.4161C17.5133 86.4161 15.4836 84.4706 15.4836 81.832C15.4836 79.1736 17.5133 77.2479 20.0034 77.2479C22.4934 77.2479 24.5231 79.1736 24.5231 81.832ZM32.6914 81.832C32.6914 80.1835 31.5132 79.0548 30.1518 79.0548C28.7855 79.0548 27.6122 80.1835 27.6122 81.832C27.6122 83.4656 28.7904 84.6092 30.1518 84.6092C31.5132 84.6092 32.6914 83.4607 32.6914 81.832ZM34.6715 81.832C34.6715 84.4706 32.6419 86.4161 30.1518 86.4161C27.6617 86.4161 25.632 84.4706 25.632 81.832C25.632 79.1736 27.6617 77.2479 30.1518 77.2479C32.6419 77.2479 34.6715 79.1736 34.6715 81.832ZM7.74109 86.4161C3.82033 86.4161 0.513428 83.2181 0.513428 79.2875C0.513428 75.3618 3.81538 72.1588 7.74109 72.1588C9.91434 72.1588 11.4589 73.0103 12.6222 74.1241L11.251 75.4954C10.4193 74.7132 9.29058 74.1043 7.74109 74.1043C4.87478 74.1043 2.64212 76.4162 2.64212 79.2528C2.64212 82.1191 4.88468 84.4013 7.74109 84.4013C9.59751 84.4013 10.6569 83.6538 11.3351 82.9756C11.8896 82.4211 12.2559 81.6191 12.3945 80.5251H7.74109V78.5795H14.2757C14.345 78.9261 14.3796 79.3419 14.3796 79.7924C14.3796 81.2528 13.9787 83.0597 12.6965 84.3419C11.449 85.6537 9.84998 86.3518 7.74604 86.3518" fill="#4F481F"/>
<path d="M62.3812 86.0368V74.0664H63.9271L68.0844 81.3573H68.1471L72.3043 74.0664H73.8503V86.0368H72.3048L72.3675 76.9284H72.3048L68.5654 83.4881H67.6671L63.9276 76.9284H63.8649C63.979 79.9581 63.9276 83.0076 63.9276 86.0368H62.3812ZM78.6761 86.2457C77.7987 86.2457 77.0884 85.995 76.5034 85.4936C75.9185 84.9922 75.626 84.3237 75.626 83.5085C75.626 82.6102 75.9811 81.9208 76.6705 81.4194C77.3599 80.9181 78.2165 80.6674 79.2192 80.6674C80.1175 80.6674 80.8696 80.8345 81.4337 81.1688C81.4187 79.4312 80.2178 78.9543 79.2819 78.9543C78.3983 78.9963 77.6315 79.3659 77.3182 80.1451L75.9185 79.5393C76.1065 79.0588 76.4825 78.5987 77.0466 78.1814C77.6106 77.7641 78.3418 77.5547 79.261 77.5547C80.3056 77.5547 81.183 77.868 81.8724 78.4738C82.5618 79.0797 82.9169 79.9571 82.9169 81.0643V86.0154H81.4546V84.8873C80.7714 85.7438 79.848 86.2264 78.6761 86.2452V86.2457ZM81.4337 82.4436C80.5333 81.7583 78.6552 81.6727 77.7778 82.3809C77.0884 83.0494 77.0152 83.9456 77.736 84.47C79.4783 85.5876 81.4963 83.8474 81.4337 82.4436ZM88.9126 86.2457C88.2859 86.2457 87.7218 86.1203 87.2413 85.8488C86.7608 85.5772 86.3848 85.2429 86.1341 84.846H86.0506L86.1132 85.9741V89.5882H84.5882V77.785H86.0506V78.9131H86.1132C86.3639 78.5161 86.7191 78.1819 87.2204 77.9103C87.7218 77.6387 88.2859 77.5134 88.8917 77.5134C89.9572 77.5134 90.8555 77.9312 91.6284 78.7668C92.4014 79.6024 92.7769 80.647 92.7769 81.8795C92.7769 83.1121 92.4009 84.1566 91.6284 84.9922C90.8764 85.8279 89.9572 86.2457 88.9126 86.2457ZM88.6619 84.8251C89.3722 84.8251 89.9781 84.5535 90.5003 84.0104C91.0226 83.4672 91.2733 82.7569 91.2733 81.8586C91.2733 80.9603 91.0226 80.2501 90.5003 79.7069C89.9781 79.1637 89.3722 78.8922 88.6619 78.8922C87.9307 78.8922 87.3249 79.1637 86.8235 79.686C86.3221 80.2292 86.0715 80.9394 86.0715 81.8377C86.0715 82.736 86.3221 83.4672 86.8235 83.9895C87.3249 84.5744 87.9307 84.8251 88.6619 84.8251ZM97.269 86.2457C96.3498 86.2457 95.5977 86.0159 95.0128 85.5772C94.4069 85.1385 93.9891 84.5744 93.6966 83.9059L95.0754 83.3419C95.5141 84.3655 96.2453 84.8878 97.2899 84.8878C97.7704 84.8878 98.1673 84.7838 98.4598 84.5744C98.7731 84.3655 98.9194 84.0939 98.9194 83.7388C98.9194 83.1956 98.5433 82.8405 97.7913 82.6525L96.1409 82.2556C95.6186 82.1302 95.1172 81.8586 94.6576 81.5035C94.198 81.1484 93.9473 80.6261 93.9473 79.9994C93.9473 79.2682 94.2607 78.6833 94.9083 78.2445C95.5559 77.785 96.308 77.576 97.1854 77.576C97.9166 77.576 98.5642 77.7432 99.1283 78.0774C99.6923 78.4117 100.11 78.8713 100.34 79.498L99.0029 80.0411C98.7104 79.31 98.0837 78.9548 97.1227 78.9548C96.6631 78.9548 96.2871 79.0588 95.9742 79.2473C95.6614 79.4358 95.5146 79.686 95.5146 80.0203C95.5146 80.4799 95.8698 80.8141 96.601 80.9812L98.2305 81.3573C99.0034 81.5453 99.5675 81.8377 99.9435 82.2765C100.32 82.7152 100.487 83.1956 100.487 83.7388C100.487 84.47 100.194 85.0967 99.5884 85.5772C99.0034 85.995 98.2305 86.2457 97.2695 86.2457H97.269Z" fill="#4F481F"/>
<path d="M41.6813 45.6491C43.5575 47.9956 45.4684 50.9461 46.4684 52.7282C47.6862 55.045 48.1911 56.6094 49.097 59.4113C49.6267 60.946 50.1317 61.4113 51.1911 61.4113C52.3495 61.4113 52.8792 60.6292 53.2851 59.4113C54.1317 56.7827 54.7851 54.7827 55.8198 52.8767C59.8098 45.3521 66.3147 40.0056 69.9781 32.6789C69.9781 32.6789 72.3889 28.2037 72.3889 21.9364C72.3889 16.0949 70.0127 12.0355 70.0127 12.0355L41.6961 45.6986L41.6813 45.6491Z" fill="#4F481F"/>
<path d="M32.0775 31.8869C34.3597 37.0848 38.7111 41.6392 41.6814 45.6491L57.4239 26.9859C57.4239 26.9859 55.2011 29.8968 51.1863 29.8968C46.7111 29.8968 43.0675 26.3325 43.0675 21.8275C43.0675 18.7286 44.914 16.5801 44.914 16.5801C33.33 18.3028 33.9735 21.1097 32.0428 31.877L32.0775 31.8869Z" fill="#4F481F"/>
<path d="M57.6217 1.5752C62.8692 3.2633 67.3246 6.82267 69.9979 12.0206L57.4237 27.0205C57.4237 27.0205 59.2702 24.8621 59.2702 21.773C59.2702 17.1741 55.3891 13.7038 51.201 13.7038C47.2258 13.7038 44.9634 16.58 44.9634 16.58C45.9288 14.382 55.9039 2.32271 57.6366 1.58015L57.6217 1.5752Z" fill="#4F481F"/>
<path d="M34.9487 8.17417C38.0774 4.45143 43.5625 0.599976 51.1367 0.599976C54.7951 0.599976 57.5723 1.57026 57.5723 1.57026L44.9486 16.5701C44.0971 16.1083 35.7903 9.6395 34.9487 8.15437V8.17417Z" fill="#4F481F"/>
<path d="M32.0775 31.8868C32.0775 31.8868 30.0131 27.7878 30.0131 21.8869C30.0131 16.2929 32.2012 11.3919 34.9636 8.22363L44.9634 16.6394L32.0923 31.8868H32.0775Z" fill="#4F481F"/>
</g>
<defs>
<clipPath id="clip0_1_189">
<rect width="100" height="89.92" fill="white" transform="translate(0.5 0.599976)"/>
</clipPath>
</defs>
</svg>
