<svg width="101" height="34" viewBox="0 0 101 34" fill="none" xmlns="http://www.w3.org/2000/svg">
<g clip-path="url(#clip0_1_186)">
<path d="M9.77352 0.0883564C9.10886 0.342489 8.01414 1.71089 7.36904 3.05975C6.48935 4.93642 6.09838 6.59805 6.09838 8.51382C6.09838 9.90177 6.17657 10.3514 6.62619 11.3484C6.91942 11.9739 7.38859 12.7559 7.68182 13.0686C8.34647 13.7724 9.57803 14.3393 10.4186 14.3589C10.9464 14.3589 11.0442 14.4371 11.0442 14.8476C11.0442 15.1213 10.8682 15.7664 10.6728 16.3137C9.81262 18.5618 8.07279 19.8325 5.7856 19.8325C4.16306 19.8325 2.99014 19.3047 2.56008 18.3859C2.03226 17.2716 2.14955 16.5874 3.04879 15.4927C3.6548 14.7889 3.88938 14.3198 3.96758 13.6747C4.04577 12.8927 4.00667 12.7754 3.59615 12.6386C2.48188 12.2281 1.09393 13.2641 0.663858 14.7889C0.546567 15.2581 0.487921 16.1378 0.546567 16.7633C0.839796 19.9693 3.24428 21.6114 7.2322 21.3377C9.42164 21.1813 10.5555 20.7513 11.7479 19.5392C12.999 18.3077 13.5269 16.9197 13.781 14.3784C13.996 12.2281 14.0351 3.99808 13.8592 1.78909C13.7223 0.303391 13.7223 0.283843 13.1163 0.205648C11.7284 -0.00938679 10.1449 -0.0680327 9.77352 0.0883564ZM10.9855 2.86426C11.1028 3.02065 11.1419 4.93642 11.0833 7.65368C11.0051 11.8762 10.966 12.2085 10.6337 12.3063C9.98855 12.5213 9.20661 11.9739 8.69834 10.9378C8.24873 10.0582 8.20963 9.72583 8.20963 7.61458C8.20963 5.07326 8.42466 4.15447 9.22616 3.21614C9.73442 2.59058 10.6337 2.41464 10.9855 2.86426ZM34.6198 0.616169C34.5612 0.772559 34.5025 1.35902 34.5025 1.90638C34.5025 2.47329 34.4439 3.50937 34.3657 4.23267L34.2484 5.56197H33.3492C32.4695 5.56197 31.0424 5.83565 30.8469 6.01159C30.8078 6.07024 30.8469 6.28527 30.9642 6.50031C31.1597 6.85218 31.5702 7.00857 33.6815 7.43864L34.1116 7.51684L34.0725 12.1694C34.0138 16.2355 34.0529 16.9588 34.3852 18.0145C35.0108 20.0866 36.4378 21.3377 37.8844 21.064C38.6077 20.9272 39.5656 19.8911 40.2107 18.5618C40.504 17.9167 40.7581 17.5648 40.7581 17.7799C40.7581 18.425 41.6769 20.1648 42.1656 20.4971C42.4197 20.6731 43.1039 20.8881 43.6708 21.0054C45.352 21.3182 46.3294 20.6144 47.3264 18.3468L47.6392 17.5844L47.8151 18.1513C48.0302 18.9332 49.0858 19.9693 49.7896 20.1062C50.552 20.2625 51.5685 19.8129 52.0963 19.0896L52.5459 18.4836L52.9564 19.3047C53.5038 20.3603 54.0903 20.7708 55.4978 21.0249C56.5338 21.2009 56.7098 21.2009 57.1594 20.849C57.4331 20.6535 57.9022 20.0475 58.1955 19.5197L58.7428 18.5618V20.8881L57.2962 22.3152C55.6932 23.879 54.5203 25.9317 53.9534 28.1406C52.9955 31.9135 54.2075 33.5752 57.9413 33.5947C59.5443 33.6143 59.5639 33.6143 60.1112 32.9692C61.03 31.8744 61.1669 31.0534 61.2841 26.088L61.3819 21.4941H62.0075C62.3593 21.4941 62.7503 21.3768 62.8871 21.24C63.1022 21.0249 63.0631 20.9077 62.6721 20.5949C62.418 20.3994 61.9879 20.2234 61.7142 20.2234H61.2255L61.3232 17.037C61.4014 14.5934 61.4992 13.7138 61.7533 13.225L62.0856 12.5799L61.4405 12.3258L60.7954 12.0521V10.2927C60.7954 8.61156 60.7563 8.49427 60.2481 7.94691C59.9548 7.63413 59.3293 7.28225 58.8797 7.14541C58.43 7.02812 57.6481 6.73489 57.1398 6.50031C56.0647 6.01159 55.4978 6.10934 54.5594 6.93038C53.2301 8.1033 52.5655 10.41 52.3113 14.6521C52.1549 17.3693 51.8617 18.3272 51.1189 18.5618C50.5715 18.7378 50.2001 18.3859 49.9459 17.5062C49.6918 16.5483 49.6918 14.3393 49.985 13.2446C50.2001 12.3844 50.1805 12.3258 49.7114 11.9348C49.2617 11.5634 49.2031 11.3484 49.1249 9.90177C49.0076 7.84916 48.7144 7.43864 46.8964 6.69579C43.2603 5.2101 41.4423 6.85218 40.7581 12.2867C40.6603 13.1273 40.4844 13.9288 40.3867 14.0461C40.2889 14.1634 40.0543 14.8671 39.898 15.5904C39.507 17.2325 38.9596 18.3663 38.295 18.7768C37.8258 19.0896 37.7867 19.0896 37.4153 18.7182C36.8288 18.1317 36.6529 16.2942 36.7702 12.2085C36.907 7.08677 36.8288 7.38 38.1386 7.20406C38.7446 7.14541 39.8002 7.06722 40.4844 7.06722C41.8333 7.04767 42.0288 6.87173 41.3445 6.24618C41.0318 5.9725 40.504 5.8552 39.0378 5.77701L37.1416 5.65972L37.1807 4.29131C37.2002 3.52892 37.2784 2.49284 37.3371 1.98457C37.4544 1.06579 37.4348 1.04624 36.8093 0.792107C35.7145 0.362037 34.7371 0.264294 34.6198 0.616169ZM58.0977 8.76795C58.606 9.21757 58.6451 9.33486 58.6255 10.6837C58.5864 13.3228 58.0782 16.2942 57.4331 17.5844C56.9834 18.4836 56.182 19.246 55.6737 19.246C55.4196 19.246 55.0872 19.031 54.8917 18.7182C54.3639 17.9363 54.3835 12.7754 54.9113 11.2311C55.4196 9.70628 55.9669 8.88524 56.6707 8.57246C57.4722 8.22059 57.4722 8.22059 58.0977 8.76795ZM46.7791 9.17847C47.3069 9.86267 47.5024 11.2897 47.1309 11.8566C46.9746 12.1108 46.7595 13.2446 46.6422 14.398C46.349 17.0175 45.958 18.3859 45.2543 19.0896C44.4332 19.8911 43.749 19.8325 43.3581 18.8941C42.5957 17.1152 42.9084 11.9739 43.9054 10.0386C44.6092 8.65066 46.0362 8.22059 46.7791 9.17847ZM58.5473 28.8835C58.1955 31.1511 57.3549 32.3241 56.2797 32.0699C55.2632 31.8158 54.9504 29.9782 55.5173 27.7497C55.9474 26.1271 56.9835 23.9963 57.8827 22.9603L58.6451 22.1001L58.7037 24.8174C58.7233 26.3226 58.6646 28.1602 58.5473 28.8835Z" fill="#4F481F"/>
<path d="M73.3066 7.00858C72.3096 8.04465 71.7231 9.60854 71.4299 12.1108C71.1562 14.4566 70.3743 17.5453 69.8269 18.5422C69.4946 19.1483 69.2796 19.3437 68.9081 19.3437C68.1262 19.3437 67.8721 18.2686 67.9894 15.3363C68.0676 13.5574 68.2044 12.5017 68.5367 11.4461L68.9863 9.99951L68.5563 9.64764C68.2826 9.4326 67.6179 9.25666 66.7969 9.17847C66.0736 9.11982 65.3503 9.04163 65.1939 9.02208C64.9984 8.98298 64.9007 8.72885 64.9007 8.20104C64.8811 7.08677 64.6856 6.87174 63.8841 6.98903C62.6917 7.18451 62.6917 7.22361 62.7894 10.5078C62.8676 12.4235 62.809 14.007 62.6526 14.9453C62.3007 17.0175 62.3203 17.1738 62.7112 17.252C63.239 17.3693 63.7473 15.9618 64.1578 13.1859L64.5293 10.7424H65.6826L65.6044 13.2837C65.4871 18.2686 66.5232 20.8099 68.6736 20.8099C69.5728 20.8099 70.3547 20.2039 70.9216 19.0505L71.4104 18.0926L71.7231 18.9332C71.8991 19.3828 72.2901 19.9888 72.5833 20.2625C73.2284 20.8685 75.0464 21.3181 75.7893 21.0249C76.4344 20.7903 77.275 19.7543 77.8028 18.6009L78.2133 17.643L78.5847 18.4641C79.523 20.5558 81.6734 20.7121 82.9441 18.7964L83.4719 17.9949L83.5892 19.0114C83.7651 20.3016 83.9801 20.5558 85.0553 20.7317C86.756 20.9858 86.756 20.9663 87.147 18.034C87.4793 15.3949 87.9876 13.1859 88.2808 13.1859C88.359 13.1859 88.4568 14.4957 88.4959 16.0987C88.5545 18.6204 88.6132 19.0701 88.9259 19.4219C89.6883 20.2625 91.5845 20.1257 91.5845 19.2264C91.5845 18.5422 92.3665 15.7077 93.0116 14.0656L93.6372 12.5017L93.7349 15.2385C93.8131 17.6626 93.8913 18.0926 94.3214 18.9332C94.595 19.4806 95.0447 20.0866 95.3379 20.3016C96.0612 20.8294 97.4491 20.8294 98.1529 20.3016C99.6581 19.1874 101.222 14.3588 100.088 14.3588C99.7363 14.3588 99.5017 14.828 99.3063 15.825C98.8566 18.3272 97.3514 19.7543 96.6672 18.3077C96.2567 17.4671 96.198 14.1047 96.5694 12.5017C97.1559 9.96041 97.1755 10.1559 96.3935 9.56944C95.9048 9.19802 95.3574 8.98298 94.7319 8.92434L93.8131 8.84614L93.3048 9.97996C93.0116 10.6251 92.3665 12.3258 91.8387 13.7724L90.9003 16.4114L90.8417 13.4401L90.7831 10.4491L90.2161 10.1559C88.6523 9.35441 87.8312 10.0777 86.9124 13.1077C86.5606 14.2807 86.2478 15.3167 86.2087 15.434C86.1696 15.5318 86.1305 13.9483 86.1305 11.8762C86.1109 9.54989 86.0327 8.08375 85.9154 8.00555C85.7982 7.92736 85.2312 7.82962 84.6643 7.77097L83.6087 7.65368L83.5305 11.3484C83.4523 14.4566 83.3741 15.2385 83.0223 16.3333C82.2599 18.6204 81.2824 19.3242 80.7155 17.9753C80.3832 17.1738 80.3441 14.222 80.6569 13.0882C80.8524 12.3844 80.8328 12.2867 80.3832 11.9153C79.9727 11.5829 79.8945 11.2897 79.7772 9.97996C79.6208 8.24014 79.3276 7.49729 78.6434 7.20406C76.5908 6.24618 76.2389 6.14844 75.2223 6.14844C74.1667 6.14844 74.069 6.18754 73.3066 7.00858ZM77.1186 8.88524C77.7637 9.23712 78.1937 11.4461 77.705 11.9348C77.6073 12.0326 77.4118 13.0491 77.3141 14.1634C77.0404 16.822 76.6103 18.3272 75.9261 19.0701C75.2028 19.8325 74.4013 19.7934 74.0103 18.9723C73.3457 17.5648 73.3848 13.5965 74.0885 11.1529C74.675 9.17847 75.9066 8.24014 77.1186 8.88524ZM16.2442 7.67323C16.0878 7.94691 15.6773 17.2129 15.775 18.3077C15.9118 19.5979 16.3419 20.0279 17.4757 20.0279C17.9644 20.0279 18.4727 19.9497 18.59 19.8716C18.7268 19.7934 18.9614 18.9919 19.1374 18.0731C19.5088 16.2551 20.0952 14.3393 20.5253 13.5769C20.7794 13.1273 20.799 13.3032 20.8185 15.434C20.8185 18.034 21.0922 18.9332 21.9915 19.4024C22.6366 19.7347 23.8681 19.5783 24.5719 19.0505C25.1583 18.6204 25.1583 18.6204 25.432 19.0114C26.0576 19.9106 28.7553 20.4385 30.6515 20.0279C32.0785 19.7347 32.9387 19.0505 32.9387 18.1904C32.9387 17.3498 32.6455 16.9784 30.6124 15.3363C28.5793 13.6942 28.247 13.2641 28.247 12.3062C28.247 10.8987 29.9868 10.0582 31.0034 10.9574C31.4725 11.3875 31.8831 11.2897 32.45 10.6251C32.8605 10.1364 32.9387 9.84312 32.8996 9.19802C32.8409 8.53337 32.7432 8.35743 32.2545 8.12285C31.1598 7.59503 27.5824 8.55291 26.3117 9.72583C25.2952 10.6642 25.0606 12.1108 25.7057 13.3619C25.9989 13.9679 26.038 14.1438 25.823 14.222C25.6861 14.2807 25.5102 14.7107 25.432 15.1603C25.1192 17.1347 24.0832 18.4836 23.3794 17.7994C23.1253 17.5257 23.0666 16.9393 23.0275 14.2807C23.008 11.8371 22.9298 10.9378 22.6952 10.4882C22.3629 9.84312 21.6005 9.54989 21.014 9.86267C20.5253 10.1168 19.7434 11.4657 19.0396 13.2446L18.4923 14.6521L18.4727 11.4852C18.4727 8.41607 18.4532 8.29878 18.0426 8.0251C17.4366 7.65368 16.381 7.45819 16.2442 7.67323ZM29.3222 16.9588C29.7914 17.3693 30.2019 17.858 30.2605 18.0731C30.5538 19.1678 28.9508 19.4806 27.6997 18.5618C27.2891 18.2686 26.7418 17.8776 26.429 17.7017C26.0967 17.5062 25.9403 17.2911 26.0185 17.0957C26.0771 16.9393 26.2335 16.3137 26.3508 15.7077L26.5658 14.5934L27.5433 15.4145C28.0711 15.8445 28.8726 16.5483 29.3222 16.9588Z" fill="#4F481F"/>
</g>
<defs>
<clipPath id="clip0_1_186">
<rect width="100" height="33.6" fill="white" transform="translate(0.5)"/>
</clipPath>
</defs>
</svg>
