<svg width="101" height="28" viewBox="0 0 101 28" fill="none" xmlns="http://www.w3.org/2000/svg">
<g clip-path="url(#clip0_1_182)">
<path d="M95.1504 12.8913L100.5 27.0534C98.9234 26.8283 97.3477 26.5463 95.7433 26.2922L92.7297 18.467L89.6334 25.6462C88.1136 25.3922 86.6208 25.3075 85.1009 25.1102L90.5343 12.7229L85.6062 0.0264282H90.1675L92.9261 7.12014L95.8829 0.0264282H100.499L95.1504 12.8913ZM82.0046 0.0264282H77.8658V24.576C79.2172 24.6607 80.6243 24.7165 82.0046 24.885V0.0264282ZM74.2901 24.2941C70.5181 24.0408 66.745 23.8166 62.8883 23.731V0.026537H67.1109V19.7336C69.5325 19.7895 71.9532 19.9859 74.2901 20.0985V24.2941ZM58.3829 9.6273V13.8498H52.6118V23.4498H48.4461V0.0264282H60.2703V4.24894H52.6127V9.62741H58.3838L58.3829 9.6273ZM41.3505 4.24894V23.6751C39.9424 23.6751 38.5074 23.6751 37.1271 23.731V4.24894H32.7632V0.0264282H45.7414V4.24894H41.3505ZM28.2029 14.0742C26.3452 14.0742 24.1487 14.0742 22.5722 14.1598V20.4372C25.0496 20.2679 27.5271 20.0714 30.0324 19.9868V24.0408L18.3497 24.9706V0.0264282H30.0317V4.24894H22.5721V9.93631C24.2054 9.93631 26.7108 9.85168 28.2027 9.85168V14.0751L28.2029 14.0742ZM4.80637 11.7093V26.4615C3.28745 26.6309 1.93517 26.8282 0.5 27.0534V0.0264282H4.52619L10.0155 15.3707V0.0264282H14.2389V25.3075C12.7469 25.5616 11.2263 25.6462 9.62176 25.8706L4.80637 11.7093Z" fill="#4F481F"/>
</g>
<defs>
<clipPath id="clip0_1_182">
<rect width="100" height="27.08" fill="white" transform="translate(0.5)"/>
</clipPath>
</defs>
</svg>
