<svg width="212" height="30" viewBox="0 0 212 30" fill="none" xmlns="http://www.w3.org/2000/svg">
<g filter="url(#filter0_i_1_212)">
<rect y="22" width="212" height="8" rx="2" fill="#F8EDE4" fill-opacity="0.65"/>
<rect y="22" width="139" height="8" rx="2" fill="#4F481F"/>
<path d="M1.848 16C1.64267 16 1.484 15.9487 1.372 15.846C1.26933 15.734 1.218 15.5753 1.218 15.37V6.76C1.218 6.55467 1.26933 6.40067 1.372 6.298C1.484 6.186 1.64267 6.13 1.848 6.13H7.056C7.21467 6.13 7.336 6.172 7.42 6.256C7.504 6.34 7.546 6.45667 7.546 6.606C7.546 6.76467 7.504 6.886 7.42 6.97C7.336 7.054 7.21467 7.096 7.056 7.096H2.338V10.512H6.762C6.92067 10.512 7.042 10.554 7.126 10.638C7.21 10.7127 7.252 10.8293 7.252 10.988C7.252 11.1467 7.21 11.268 7.126 11.352C7.042 11.436 6.92067 11.478 6.762 11.478H2.338V15.034H7.056C7.21467 15.034 7.336 15.076 7.42 15.16C7.504 15.244 7.546 15.3607 7.546 15.51C7.546 15.6687 7.504 15.79 7.42 15.874C7.336 15.958 7.21467 16 7.056 16H1.848ZM9.81411 16.098C9.62744 16.098 9.48744 16.0467 9.39411 15.944C9.30078 15.8413 9.25411 15.6967 9.25411 15.51V9.672C9.25411 9.48533 9.30078 9.34533 9.39411 9.252C9.48744 9.14933 9.62278 9.098 9.80011 9.098C9.97744 9.098 10.1128 9.14933 10.2061 9.252C10.3088 9.34533 10.3601 9.48533 10.3601 9.672V10.904L10.2061 10.708C10.3834 10.1853 10.6681 9.784 11.0601 9.504C11.4614 9.21467 11.9374 9.07 12.4881 9.07C13.0668 9.07 13.5334 9.21 13.8881 9.49C14.2521 9.76067 14.4948 10.1853 14.6161 10.764H14.4061C14.5741 10.2413 14.8728 9.83067 15.3021 9.532C15.7408 9.224 16.2494 9.07 16.8281 9.07C17.3414 9.07 17.7614 9.168 18.0881 9.364C18.4241 9.56 18.6761 9.85867 18.8441 10.26C19.0121 10.652 19.0961 11.1513 19.0961 11.758V15.51C19.0961 15.6967 19.0448 15.8413 18.9421 15.944C18.8488 16.0467 18.7088 16.098 18.5221 16.098C18.3448 16.098 18.2048 16.0467 18.1021 15.944C18.0088 15.8413 17.9621 15.6967 17.9621 15.51V11.814C17.9621 11.1887 17.8548 10.7313 17.6401 10.442C17.4254 10.1433 17.0614 9.994 16.5481 9.994C15.9881 9.994 15.5448 10.19 15.2181 10.582C14.9008 10.9647 14.7421 11.4873 14.7421 12.15V15.51C14.7421 15.6967 14.6908 15.8413 14.5881 15.944C14.4948 16.0467 14.3548 16.098 14.1681 16.098C13.9908 16.098 13.8508 16.0467 13.7481 15.944C13.6548 15.8413 13.6081 15.6967 13.6081 15.51V11.814C13.6081 11.1887 13.4961 10.7313 13.2721 10.442C13.0574 10.1433 12.6981 9.994 12.1941 9.994C11.6341 9.994 11.1908 10.19 10.8641 10.582C10.5468 10.9647 10.3881 11.4873 10.3881 12.15V15.51C10.3881 15.902 10.1968 16.098 9.81411 16.098ZM21.7763 18.618C21.5897 18.618 21.4497 18.5667 21.3563 18.464C21.263 18.3707 21.2163 18.2307 21.2163 18.044V9.672C21.2163 9.48533 21.263 9.34533 21.3563 9.252C21.4497 9.14933 21.585 9.098 21.7623 9.098C21.949 9.098 22.089 9.14933 22.1823 9.252C22.285 9.34533 22.3363 9.48533 22.3363 9.672V11.002L22.1823 10.806C22.3317 10.274 22.6257 9.854 23.0643 9.546C23.5123 9.22867 24.0443 9.07 24.6603 9.07C25.267 9.07 25.7943 9.21467 26.2423 9.504C26.6997 9.784 27.0497 10.19 27.2923 10.722C27.5443 11.2447 27.6703 11.87 27.6703 12.598C27.6703 13.3167 27.5443 13.942 27.2923 14.474C27.0497 14.9967 26.7043 15.4027 26.2563 15.692C25.8083 15.9813 25.2763 16.126 24.6603 16.126C24.0443 16.126 23.517 15.972 23.0783 15.664C22.6397 15.3467 22.341 14.9267 22.1823 14.404H22.3503V18.044C22.3503 18.2307 22.299 18.3707 22.1963 18.464C22.0937 18.5667 21.9537 18.618 21.7763 18.618ZM24.4223 15.216C24.8517 15.216 25.2203 15.1133 25.5283 14.908C25.8457 14.7027 26.0883 14.404 26.2563 14.012C26.4337 13.62 26.5223 13.1487 26.5223 12.598C26.5223 11.7487 26.331 11.1 25.9483 10.652C25.575 10.204 25.0663 9.98 24.4223 9.98C24.0023 9.98 23.6337 10.0827 23.3163 10.288C22.999 10.484 22.7517 10.778 22.5743 11.17C22.4063 11.5527 22.3223 12.0287 22.3223 12.598C22.3223 13.438 22.5137 14.0867 22.8963 14.544C23.279 14.992 23.7877 15.216 24.4223 15.216ZM31.5205 16.126C31.0538 16.126 30.6338 16.0373 30.2605 15.86C29.8965 15.6733 29.6071 15.4213 29.3925 15.104C29.1778 14.7867 29.0705 14.432 29.0705 14.04C29.0705 13.536 29.1965 13.1393 29.4485 12.85C29.7098 12.5607 30.1345 12.3553 30.7225 12.234C31.3198 12.1127 32.1318 12.052 33.1585 12.052H33.7885V12.794H33.1725C32.4165 12.794 31.8191 12.8313 31.3805 12.906C30.9511 12.9713 30.6478 13.088 30.4705 13.256C30.3025 13.424 30.2185 13.662 30.2185 13.97C30.2185 14.3527 30.3491 14.6653 30.6105 14.908C30.8811 15.1507 31.2451 15.272 31.7025 15.272C32.0758 15.272 32.4025 15.1833 32.6825 15.006C32.9718 14.8287 33.1958 14.586 33.3545 14.278C33.5225 13.97 33.6065 13.6153 33.6065 13.214V11.618C33.6065 11.0393 33.4898 10.624 33.2565 10.372C33.0231 10.1107 32.6405 9.98 32.1085 9.98C31.7818 9.98 31.4551 10.022 31.1285 10.106C30.8018 10.19 30.4565 10.3253 30.0925 10.512C29.9618 10.5773 29.8498 10.6007 29.7565 10.582C29.6631 10.554 29.5885 10.5027 29.5325 10.428C29.4765 10.3533 29.4438 10.2693 29.4345 10.176C29.4251 10.0733 29.4438 9.97533 29.4905 9.882C29.5465 9.78867 29.6305 9.714 29.7425 9.658C30.1531 9.45267 30.5591 9.30333 30.9605 9.21C31.3618 9.11667 31.7445 9.07 32.1085 9.07C32.6965 9.07 33.1818 9.168 33.5645 9.364C33.9471 9.55067 34.2318 9.84 34.4185 10.232C34.6051 10.6147 34.6985 11.1093 34.6985 11.716V15.51C34.6985 15.6967 34.6518 15.8413 34.5585 15.944C34.4745 16.0467 34.3485 16.098 34.1805 16.098C34.0031 16.098 33.8678 16.0467 33.7745 15.944C33.6811 15.8413 33.6345 15.6967 33.6345 15.51V14.418H33.7605C33.6858 14.7727 33.5411 15.076 33.3265 15.328C33.1211 15.58 32.8645 15.776 32.5565 15.916C32.2485 16.056 31.9031 16.126 31.5205 16.126ZM39.5323 16.126C39.0003 16.126 38.5523 16.0327 38.1883 15.846C37.8336 15.65 37.5676 15.37 37.3903 15.006C37.2129 14.6327 37.1243 14.18 37.1243 13.648V10.078H36.1863C36.0276 10.078 35.9063 10.0407 35.8223 9.966C35.7383 9.882 35.6963 9.77 35.6963 9.63C35.6963 9.49 35.7383 9.38267 35.8223 9.308C35.9063 9.23333 36.0276 9.196 36.1863 9.196H37.1243V7.586C37.1243 7.39933 37.1756 7.25933 37.2783 7.166C37.3809 7.06333 37.5209 7.012 37.6983 7.012C37.8756 7.012 38.0109 7.06333 38.1043 7.166C38.2069 7.25933 38.2583 7.39933 38.2583 7.586V9.196H40.0223C40.1809 9.196 40.3023 9.23333 40.3863 9.308C40.4703 9.38267 40.5123 9.49 40.5123 9.63C40.5123 9.77 40.4703 9.882 40.3863 9.966C40.3023 10.0407 40.1809 10.078 40.0223 10.078H38.2583V13.536C38.2583 14.068 38.3703 14.474 38.5943 14.754C38.8183 15.0247 39.1823 15.16 39.6863 15.16C39.8636 15.16 40.0129 15.1413 40.1343 15.104C40.2649 15.0667 40.3723 15.048 40.4563 15.048C40.5403 15.0387 40.6103 15.0667 40.6663 15.132C40.7223 15.1973 40.7503 15.3093 40.7503 15.468C40.7503 15.58 40.7269 15.6827 40.6803 15.776C40.6429 15.8693 40.5729 15.9347 40.4703 15.972C40.3583 16.0093 40.2089 16.042 40.0223 16.07C39.8449 16.1073 39.6816 16.126 39.5323 16.126ZM42.3388 16.098C42.1522 16.098 42.0122 16.0467 41.9188 15.944C41.8255 15.8413 41.7788 15.6967 41.7788 15.51V6.606C41.7788 6.41933 41.8255 6.27933 41.9188 6.186C42.0122 6.08333 42.1522 6.032 42.3388 6.032C42.5162 6.032 42.6562 6.08333 42.7588 6.186C42.8615 6.27933 42.9128 6.41933 42.9128 6.606V10.708H42.7308C42.9268 10.1667 43.2442 9.76067 43.6828 9.49C44.1308 9.21 44.6442 9.07 45.2228 9.07C45.7642 9.07 46.2122 9.168 46.5668 9.364C46.9308 9.56 47.2015 9.85867 47.3788 10.26C47.5562 10.652 47.6448 11.1513 47.6448 11.758V15.51C47.6448 15.6967 47.5935 15.8413 47.4908 15.944C47.3975 16.0467 47.2622 16.098 47.0848 16.098C46.8982 16.098 46.7535 16.0467 46.6508 15.944C46.5575 15.8413 46.5108 15.6967 46.5108 15.51V11.828C46.5108 11.1933 46.3848 10.7313 46.1328 10.442C45.8902 10.1433 45.4982 9.994 44.9568 9.994C44.3315 9.994 43.8322 10.19 43.4588 10.582C43.0948 10.9647 42.9128 11.478 42.9128 12.122V15.51C42.9128 15.902 42.7215 16.098 42.3388 16.098ZM52.8019 16.126C52.0832 16.126 51.4625 15.986 50.9399 15.706C50.4265 15.4167 50.0252 15.0107 49.7359 14.488C49.4559 13.9653 49.3159 13.34 49.3159 12.612C49.3159 11.9027 49.4559 11.2867 49.7359 10.764C50.0159 10.232 50.3985 9.81667 50.8839 9.518C51.3785 9.21933 51.9479 9.07 52.5919 9.07C53.0492 9.07 53.4599 9.14933 53.8239 9.308C54.1879 9.45733 54.4959 9.67667 54.7479 9.966C55.0092 10.2553 55.2052 10.6053 55.3359 11.016C55.4759 11.4267 55.5459 11.8887 55.5459 12.402C55.5459 12.5513 55.5039 12.6633 55.4199 12.738C55.3359 12.8033 55.2145 12.836 55.0559 12.836H50.1839V12.094H54.7899L54.5659 12.276C54.5659 11.772 54.4912 11.3473 54.3419 11.002C54.1925 10.6473 53.9732 10.3767 53.6839 10.19C53.4039 10.0033 53.0492 9.91 52.6199 9.91C52.1439 9.91 51.7379 10.022 51.4019 10.246C51.0752 10.4607 50.8279 10.764 50.6599 11.156C50.4919 11.5387 50.4079 11.9867 50.4079 12.5V12.584C50.4079 13.4427 50.6132 14.096 51.0239 14.544C51.4439 14.992 52.0365 15.216 52.8019 15.216C53.1192 15.216 53.4319 15.174 53.7399 15.09C54.0572 15.006 54.3652 14.866 54.6639 14.67C54.7945 14.586 54.9112 14.5487 55.0139 14.558C55.1259 14.558 55.2145 14.5907 55.2799 14.656C55.3452 14.712 55.3872 14.7867 55.4059 14.88C55.4339 14.964 55.4245 15.0573 55.3779 15.16C55.3405 15.2627 55.2612 15.3513 55.1399 15.426C54.8319 15.65 54.4679 15.8227 54.0479 15.944C53.6279 16.0653 53.2125 16.126 52.8019 16.126ZM59.917 16.126C59.385 16.126 58.937 16.0327 58.573 15.846C58.2184 15.65 57.9524 15.37 57.775 15.006C57.5977 14.6327 57.509 14.18 57.509 13.648V10.078H56.571C56.4124 10.078 56.291 10.0407 56.207 9.966C56.123 9.882 56.081 9.77 56.081 9.63C56.081 9.49 56.123 9.38267 56.207 9.308C56.291 9.23333 56.4124 9.196 56.571 9.196H57.509V7.586C57.509 7.39933 57.5604 7.25933 57.663 7.166C57.7657 7.06333 57.9057 7.012 58.083 7.012C58.2604 7.012 58.3957 7.06333 58.489 7.166C58.5917 7.25933 58.643 7.39933 58.643 7.586V9.196H60.407C60.5657 9.196 60.687 9.23333 60.771 9.308C60.855 9.38267 60.897 9.49 60.897 9.63C60.897 9.77 60.855 9.882 60.771 9.966C60.687 10.0407 60.5657 10.078 60.407 10.078H58.643V13.536C58.643 14.068 58.755 14.474 58.979 14.754C59.203 15.0247 59.567 15.16 60.071 15.16C60.2484 15.16 60.3977 15.1413 60.519 15.104C60.6497 15.0667 60.757 15.048 60.841 15.048C60.925 15.0387 60.995 15.0667 61.051 15.132C61.107 15.1973 61.135 15.3093 61.135 15.468C61.135 15.58 61.1117 15.6827 61.065 15.776C61.0277 15.8693 60.9577 15.9347 60.855 15.972C60.743 16.0093 60.5937 16.042 60.407 16.07C60.2297 16.1073 60.0664 16.126 59.917 16.126ZM62.7236 16.07C62.5369 16.07 62.3969 16.0187 62.3036 15.916C62.2103 15.804 62.1636 15.65 62.1636 15.454V9.728C62.1636 9.532 62.2103 9.38267 62.3036 9.28C62.3969 9.17733 62.5369 9.126 62.7236 9.126C62.9009 9.126 63.0409 9.17733 63.1436 9.28C63.2463 9.38267 63.2976 9.532 63.2976 9.728V15.454C63.2976 15.65 63.2463 15.804 63.1436 15.916C63.0503 16.0187 62.9103 16.07 62.7236 16.07ZM62.7236 7.558C62.4903 7.558 62.3083 7.49733 62.1776 7.376C62.0469 7.24533 61.9816 7.07267 61.9816 6.858C61.9816 6.634 62.0469 6.466 62.1776 6.354C62.3083 6.23267 62.4903 6.172 62.7236 6.172C62.9663 6.172 63.1483 6.23267 63.2696 6.354C63.4003 6.466 63.4656 6.634 63.4656 6.858C63.4656 7.07267 63.4003 7.24533 63.2696 7.376C63.1483 7.49733 62.9663 7.558 62.7236 7.558ZM68.3015 16.126C67.6202 16.126 67.0322 15.9767 66.5375 15.678C66.0428 15.3793 65.6602 14.964 65.3895 14.432C65.1282 13.8907 64.9975 13.2653 64.9975 12.556C64.9975 12.0147 65.0722 11.5293 65.2215 11.1C65.3708 10.6707 65.5902 10.3067 65.8795 10.008C66.1688 9.7 66.5142 9.46667 66.9155 9.308C67.3262 9.14933 67.7882 9.07 68.3015 9.07C68.6375 9.07 68.9875 9.12133 69.3515 9.224C69.7155 9.32667 70.0468 9.504 70.3455 9.756C70.4388 9.82133 70.4995 9.90067 70.5275 9.994C70.5555 10.0873 70.5555 10.1807 70.5275 10.274C70.4995 10.358 70.4528 10.4327 70.3875 10.498C70.3222 10.554 70.2382 10.5867 70.1355 10.596C70.0422 10.6053 69.9442 10.5727 69.8415 10.498C69.5988 10.3113 69.3515 10.1807 69.0995 10.106C68.8475 10.0313 68.6048 9.994 68.3715 9.994C68.0075 9.994 67.6902 10.0547 67.4195 10.176C67.1488 10.288 66.9202 10.4513 66.7335 10.666C66.5468 10.8807 66.4022 11.1467 66.2995 11.464C66.2062 11.7813 66.1595 12.15 66.1595 12.57C66.1595 13.382 66.3508 14.026 66.7335 14.502C67.1162 14.9687 67.6622 15.202 68.3715 15.202C68.6048 15.202 68.8428 15.1647 69.0855 15.09C69.3375 15.0153 69.5895 14.8847 69.8415 14.698C69.9442 14.6233 70.0422 14.5907 70.1355 14.6C70.2288 14.6093 70.3082 14.6467 70.3735 14.712C70.4388 14.768 70.4808 14.8427 70.4995 14.936C70.5275 15.0293 70.5275 15.1227 70.4995 15.216C70.4715 15.3 70.4108 15.3747 70.3175 15.44C70.0188 15.6827 69.6922 15.86 69.3375 15.972C68.9828 16.0747 68.6375 16.126 68.3015 16.126Z" fill="#4F481F"/>
</g>
<defs>
<filter id="filter0_i_1_212" x="0" y="6.03198" width="212" height="24.968" filterUnits="userSpaceOnUse" color-interpolation-filters="sRGB">
<feFlood flood-opacity="0" result="BackgroundImageFix"/>
<feBlend mode="normal" in="SourceGraphic" in2="BackgroundImageFix" result="shape"/>
<feColorMatrix in="SourceAlpha" type="matrix" values="0 0 0 0 0 0 0 0 0 0 0 0 0 0 0 0 0 0 127 0" result="hardAlpha"/>
<feOffset dy="1"/>
<feGaussianBlur stdDeviation="2"/>
<feComposite in2="hardAlpha" operator="arithmetic" k2="-1" k3="1"/>
<feColorMatrix type="matrix" values="0 0 0 0 0 0 0 0 0 0 0 0 0 0 0 0 0 0 0.39 0"/>
<feBlend mode="normal" in2="shape" result="effect1_innerShadow_1_212"/>
</filter>
</defs>
</svg>
