<svg width="213" height="30" viewBox="0 0 213 30" fill="none" xmlns="http://www.w3.org/2000/svg">
<g filter="url(#filter0_i_1_220)">
<rect x="1" y="22" width="212" height="8" rx="2" fill="#F8EDE4" fill-opacity="0.65"/>
<rect x="1" y="22" width="197" height="8" rx="2" fill="#4F481F"/>
<path d="M5.214 16.098C5.03667 16.098 4.89667 16.0467 4.794 15.944C4.69133 15.832 4.64 15.6827 4.64 15.496V7.124H1.49C1.322 7.124 1.19133 7.07733 1.098 6.984C1.00467 6.89067 0.958 6.76933 0.958 6.62C0.958 6.46133 1.00467 6.34 1.098 6.256C1.19133 6.172 1.322 6.13 1.49 6.13H8.952C9.12 6.13 9.25067 6.172 9.344 6.256C9.43733 6.34 9.484 6.46133 9.484 6.62C9.484 6.77867 9.43733 6.90467 9.344 6.998C9.25067 7.082 9.12 7.124 8.952 7.124H5.802V15.496C5.802 15.6827 5.75067 15.832 5.648 15.944C5.55467 16.0467 5.41 16.098 5.214 16.098ZM9.99347 16.098C9.8068 16.098 9.66214 16.0467 9.55947 15.944C9.46614 15.8413 9.41947 15.6967 9.41947 15.51V9.672C9.41947 9.48533 9.46614 9.34533 9.55947 9.252C9.6528 9.14933 9.78814 9.098 9.96547 9.098C10.1428 9.098 10.2781 9.14933 10.3715 9.252C10.4741 9.34533 10.5255 9.48533 10.5255 9.672V10.806H10.3855C10.5348 10.2553 10.8195 9.83067 11.2395 9.532C11.6595 9.23333 12.1775 9.07467 12.7935 9.056C12.9335 9.04667 13.0455 9.07933 13.1295 9.154C13.2135 9.21933 13.2601 9.336 13.2695 9.504C13.2788 9.66267 13.2415 9.78867 13.1575 9.882C13.0735 9.97533 12.9428 10.0313 12.7655 10.05L12.5415 10.078C11.9068 10.134 11.4168 10.3393 11.0715 10.694C10.7355 11.0393 10.5675 11.5153 10.5675 12.122V15.51C10.5675 15.6967 10.5161 15.8413 10.4135 15.944C10.3201 16.0467 10.1801 16.098 9.99347 16.098ZM16.5107 16.126C16.044 16.126 15.624 16.0373 15.2507 15.86C14.8867 15.6733 14.5974 15.4213 14.3827 15.104C14.168 14.7867 14.0607 14.432 14.0607 14.04C14.0607 13.536 14.1867 13.1393 14.4387 12.85C14.7 12.5607 15.1247 12.3553 15.7127 12.234C16.31 12.1127 17.122 12.052 18.1487 12.052H18.7787V12.794H18.1627C17.4067 12.794 16.8094 12.8313 16.3707 12.906C15.9414 12.9713 15.638 13.088 15.4607 13.256C15.2927 13.424 15.2087 13.662 15.2087 13.97C15.2087 14.3527 15.3394 14.6653 15.6007 14.908C15.8714 15.1507 16.2354 15.272 16.6927 15.272C17.066 15.272 17.3927 15.1833 17.6727 15.006C17.962 14.8287 18.186 14.586 18.3447 14.278C18.5127 13.97 18.5967 13.6153 18.5967 13.214V11.618C18.5967 11.0393 18.48 10.624 18.2467 10.372C18.0134 10.1107 17.6307 9.98 17.0987 9.98C16.772 9.98 16.4454 10.022 16.1187 10.106C15.792 10.19 15.4467 10.3253 15.0827 10.512C14.952 10.5773 14.84 10.6007 14.7467 10.582C14.6534 10.554 14.5787 10.5027 14.5227 10.428C14.4667 10.3533 14.434 10.2693 14.4247 10.176C14.4154 10.0733 14.434 9.97533 14.4807 9.882C14.5367 9.78867 14.6207 9.714 14.7327 9.658C15.1434 9.45267 15.5494 9.30333 15.9507 9.21C16.352 9.11667 16.7347 9.07 17.0987 9.07C17.6867 9.07 18.172 9.168 18.5547 9.364C18.9374 9.55067 19.222 9.84 19.4087 10.232C19.5954 10.6147 19.6887 11.1093 19.6887 11.716V15.51C19.6887 15.6967 19.642 15.8413 19.5487 15.944C19.4647 16.0467 19.3387 16.098 19.1707 16.098C18.9934 16.098 18.858 16.0467 18.7647 15.944C18.6714 15.8413 18.6247 15.6967 18.6247 15.51V14.418H18.7507C18.676 14.7727 18.5314 15.076 18.3167 15.328C18.1114 15.58 17.8547 15.776 17.5467 15.916C17.2387 16.056 16.8934 16.126 16.5107 16.126ZM24.2582 16.098C24.0995 16.098 23.9595 16.056 23.8382 15.972C23.7168 15.8787 23.6142 15.7387 23.5302 15.552L21.1082 9.896C21.0428 9.756 21.0195 9.62533 21.0382 9.504C21.0568 9.38267 21.1128 9.28467 21.2062 9.21C21.2995 9.13533 21.4302 9.098 21.5982 9.098C21.7475 9.098 21.8642 9.13067 21.9482 9.196C22.0322 9.26133 22.1068 9.378 22.1722 9.546L24.4682 15.16H24.0902L26.4282 9.546C26.4935 9.378 26.5682 9.26133 26.6522 9.196C26.7362 9.13067 26.8575 9.098 27.0162 9.098C27.1655 9.098 27.2775 9.13533 27.3522 9.21C27.4362 9.28467 27.4828 9.38267 27.4922 9.504C27.5108 9.616 27.4922 9.742 27.4362 9.882L24.9862 15.552C24.9208 15.7387 24.8228 15.8787 24.6922 15.972C24.5708 16.056 24.4262 16.098 24.2582 16.098ZM31.8995 16.126C31.1809 16.126 30.5602 15.986 30.0375 15.706C29.5242 15.4167 29.1229 15.0107 28.8335 14.488C28.5535 13.9653 28.4135 13.34 28.4135 12.612C28.4135 11.9027 28.5535 11.2867 28.8335 10.764C29.1135 10.232 29.4962 9.81667 29.9815 9.518C30.4762 9.21933 31.0455 9.07 31.6895 9.07C32.1469 9.07 32.5575 9.14933 32.9215 9.308C33.2855 9.45733 33.5935 9.67667 33.8455 9.966C34.1069 10.2553 34.3029 10.6053 34.4335 11.016C34.5735 11.4267 34.6435 11.8887 34.6435 12.402C34.6435 12.5513 34.6015 12.6633 34.5175 12.738C34.4335 12.8033 34.3122 12.836 34.1535 12.836H29.2815V12.094H33.8875L33.6635 12.276C33.6635 11.772 33.5889 11.3473 33.4395 11.002C33.2902 10.6473 33.0709 10.3767 32.7815 10.19C32.5015 10.0033 32.1469 9.91 31.7175 9.91C31.2415 9.91 30.8355 10.022 30.4995 10.246C30.1729 10.4607 29.9255 10.764 29.7575 11.156C29.5895 11.5387 29.5055 11.9867 29.5055 12.5V12.584C29.5055 13.4427 29.7109 14.096 30.1215 14.544C30.5415 14.992 31.1342 15.216 31.8995 15.216C32.2169 15.216 32.5295 15.174 32.8375 15.09C33.1549 15.006 33.4629 14.866 33.7615 14.67C33.8922 14.586 34.0089 14.5487 34.1115 14.558C34.2235 14.558 34.3122 14.5907 34.3775 14.656C34.4429 14.712 34.4849 14.7867 34.5035 14.88C34.5315 14.964 34.5222 15.0573 34.4755 15.16C34.4382 15.2627 34.3589 15.3513 34.2375 15.426C33.9295 15.65 33.5655 15.8227 33.1455 15.944C32.7255 16.0653 32.3102 16.126 31.8995 16.126ZM38.3567 16.126C37.6847 16.126 37.1714 15.9207 36.8167 15.51C36.462 15.0993 36.2847 14.5113 36.2847 13.746V6.606C36.2847 6.41933 36.3314 6.27933 36.4247 6.186C36.518 6.08333 36.658 6.032 36.8447 6.032C37.022 6.032 37.162 6.08333 37.2647 6.186C37.3674 6.27933 37.4187 6.41933 37.4187 6.606V13.662C37.4187 14.166 37.5167 14.544 37.7127 14.796C37.918 15.0387 38.2167 15.16 38.6087 15.16C38.6927 15.16 38.7674 15.1553 38.8327 15.146C38.898 15.1367 38.9634 15.132 39.0287 15.132C39.1314 15.1227 39.2014 15.146 39.2387 15.202C39.2854 15.258 39.3087 15.37 39.3087 15.538C39.3087 15.706 39.2714 15.832 39.1967 15.916C39.122 16 39.0007 16.056 38.8327 16.084C38.758 16.0933 38.6787 16.1027 38.5947 16.112C38.5107 16.1213 38.4314 16.126 38.3567 16.126ZM42.4993 16.126C41.8273 16.126 41.3139 15.9207 40.9593 15.51C40.6046 15.0993 40.4273 14.5113 40.4273 13.746V6.606C40.4273 6.41933 40.4739 6.27933 40.5673 6.186C40.6606 6.08333 40.8006 6.032 40.9873 6.032C41.1646 6.032 41.3046 6.08333 41.4073 6.186C41.5099 6.27933 41.5613 6.41933 41.5613 6.606V13.662C41.5613 14.166 41.6593 14.544 41.8553 14.796C42.0606 15.0387 42.3593 15.16 42.7513 15.16C42.8353 15.16 42.9099 15.1553 42.9753 15.146C43.0406 15.1367 43.1059 15.132 43.1713 15.132C43.2739 15.1227 43.3439 15.146 43.3813 15.202C43.4279 15.258 43.4513 15.37 43.4513 15.538C43.4513 15.706 43.4139 15.832 43.3393 15.916C43.2646 16 43.1433 16.056 42.9753 16.084C42.9006 16.0933 42.8213 16.1027 42.7373 16.112C42.6533 16.1213 42.5739 16.126 42.4993 16.126ZM47.5675 16.126C46.8488 16.126 46.2282 15.986 45.7055 15.706C45.1922 15.4167 44.7908 15.0107 44.5015 14.488C44.2215 13.9653 44.0815 13.34 44.0815 12.612C44.0815 11.9027 44.2215 11.2867 44.5015 10.764C44.7815 10.232 45.1642 9.81667 45.6495 9.518C46.1442 9.21933 46.7135 9.07 47.3575 9.07C47.8148 9.07 48.2255 9.14933 48.5895 9.308C48.9535 9.45733 49.2615 9.67667 49.5135 9.966C49.7748 10.2553 49.9708 10.6053 50.1015 11.016C50.2415 11.4267 50.3115 11.8887 50.3115 12.402C50.3115 12.5513 50.2695 12.6633 50.1855 12.738C50.1015 12.8033 49.9802 12.836 49.8215 12.836H44.9495V12.094H49.5555L49.3315 12.276C49.3315 11.772 49.2568 11.3473 49.1075 11.002C48.9582 10.6473 48.7388 10.3767 48.4495 10.19C48.1695 10.0033 47.8148 9.91 47.3855 9.91C46.9095 9.91 46.5035 10.022 46.1675 10.246C45.8408 10.4607 45.5935 10.764 45.4255 11.156C45.2575 11.5387 45.1735 11.9867 45.1735 12.5V12.584C45.1735 13.4427 45.3788 14.096 45.7895 14.544C46.2095 14.992 46.8022 15.216 47.5675 15.216C47.8848 15.216 48.1975 15.174 48.5055 15.09C48.8228 15.006 49.1308 14.866 49.4295 14.67C49.5602 14.586 49.6768 14.5487 49.7795 14.558C49.8915 14.558 49.9802 14.5907 50.0455 14.656C50.1108 14.712 50.1528 14.7867 50.1715 14.88C50.1995 14.964 50.1902 15.0573 50.1435 15.16C50.1062 15.2627 50.0268 15.3513 49.9055 15.426C49.5975 15.65 49.2335 15.8227 48.8135 15.944C48.3935 16.0653 47.9782 16.126 47.5675 16.126ZM52.5267 16.098C52.34 16.098 52.1953 16.0467 52.0927 15.944C51.9993 15.8413 51.9527 15.6967 51.9527 15.51V9.672C51.9527 9.48533 51.9993 9.34533 52.0927 9.252C52.186 9.14933 52.3213 9.098 52.4987 9.098C52.676 9.098 52.8113 9.14933 52.9047 9.252C53.0073 9.34533 53.0587 9.48533 53.0587 9.672V10.806H52.9187C53.068 10.2553 53.3527 9.83067 53.7727 9.532C54.1927 9.23333 54.7107 9.07467 55.3267 9.056C55.4667 9.04667 55.5787 9.07933 55.6627 9.154C55.7467 9.21933 55.7933 9.336 55.8027 9.504C55.812 9.66267 55.7747 9.78867 55.6907 9.882C55.6067 9.97533 55.476 10.0313 55.2987 10.05L55.0747 10.078C54.44 10.134 53.95 10.3393 53.6047 10.694C53.2687 11.0393 53.1007 11.5153 53.1007 12.122V15.51C53.1007 15.6967 53.0493 15.8413 52.9467 15.944C52.8533 16.0467 52.7133 16.098 52.5267 16.098Z" fill="#4F481F"/>
</g>
<defs>
<filter id="filter0_i_1_220" x="0.958" y="6.03198" width="212.042" height="24.968" filterUnits="userSpaceOnUse" color-interpolation-filters="sRGB">
<feFlood flood-opacity="0" result="BackgroundImageFix"/>
<feBlend mode="normal" in="SourceGraphic" in2="BackgroundImageFix" result="shape"/>
<feColorMatrix in="SourceAlpha" type="matrix" values="0 0 0 0 0 0 0 0 0 0 0 0 0 0 0 0 0 0 127 0" result="hardAlpha"/>
<feOffset dy="1"/>
<feGaussianBlur stdDeviation="2"/>
<feComposite in2="hardAlpha" operator="arithmetic" k2="-1" k3="1"/>
<feColorMatrix type="matrix" values="0 0 0 0 0 0 0 0 0 0 0 0 0 0 0 0 0 0 0.39 0"/>
<feBlend mode="normal" in2="shape" result="effect1_innerShadow_1_220"/>
</filter>
</defs>
</svg>
