<svg width="212" height="30" viewBox="0 0 212 30" fill="none" xmlns="http://www.w3.org/2000/svg">
<g filter="url(#filter0_i_1_216)">
<rect y="22" width="212" height="8" rx="2" fill="#F8EDE4" fill-opacity="0.65"/>
<rect y="22" width="173" height="8" rx="2" fill="#4F481F"/>
<path d="M5.362 16.126C4.44733 16.126 3.64933 15.9207 2.968 15.51C2.296 15.09 1.77333 14.502 1.4 13.746C1.036 12.99 0.854 12.094 0.854 11.058C0.854 10.274 0.956667 9.574 1.162 8.958C1.37667 8.33267 1.68 7.80533 2.072 7.376C2.464 6.93733 2.93533 6.60133 3.486 6.368C4.046 6.12533 4.67133 6.004 5.362 6.004C6.29533 6.004 7.098 6.20933 7.77 6.62C8.45133 7.03067 8.974 7.614 9.338 8.37C9.71133 9.11667 9.898 10.008 9.898 11.044C9.898 11.828 9.79067 12.5327 9.576 13.158C9.36133 13.7833 9.058 14.3153 8.666 14.754C8.274 15.1927 7.798 15.5333 7.238 15.776C6.68733 16.0093 6.062 16.126 5.362 16.126ZM5.362 15.104C6.07133 15.104 6.66867 14.9453 7.154 14.628C7.64867 14.3107 8.02667 13.8487 8.288 13.242C8.54933 12.6353 8.68 11.9073 8.68 11.058C8.68 9.77933 8.39067 8.79 7.812 8.09C7.24267 7.38067 6.426 7.026 5.362 7.026C4.67133 7.026 4.07867 7.18467 3.584 7.502C3.09867 7.81933 2.72533 8.28133 2.464 8.888C2.20267 9.48533 2.072 10.2087 2.072 11.058C2.072 12.3273 2.36133 13.3213 2.94 14.04C3.51867 14.7493 4.326 15.104 5.362 15.104ZM15.2404 16.126C14.6244 16.126 14.0924 15.9673 13.6444 15.65C13.2058 15.3327 12.9118 14.908 12.7624 14.376L12.9164 14.222V15.51C12.9164 15.6967 12.8651 15.8413 12.7624 15.944C12.6691 16.0467 12.5338 16.098 12.3564 16.098C12.1698 16.098 12.0298 16.0467 11.9364 15.944C11.8431 15.8413 11.7964 15.6967 11.7964 15.51V6.606C11.7964 6.41933 11.8431 6.27933 11.9364 6.186C12.0298 6.08333 12.1698 6.032 12.3564 6.032C12.5338 6.032 12.6738 6.08333 12.7764 6.186C12.8791 6.27933 12.9304 6.41933 12.9304 6.606V10.778H12.7624C12.9211 10.2553 13.2198 9.84 13.6584 9.532C14.0971 9.224 14.6244 9.07 15.2404 9.07C15.8564 9.07 16.3884 9.21467 16.8364 9.504C17.2844 9.784 17.6298 10.19 17.8724 10.722C18.1244 11.2447 18.2504 11.87 18.2504 12.598C18.2504 13.3167 18.1244 13.942 17.8724 14.474C17.6298 14.9967 17.2798 15.4027 16.8224 15.692C16.3744 15.9813 15.8471 16.126 15.2404 16.126ZM15.0024 15.216C15.4318 15.216 15.8004 15.1133 16.1084 14.908C16.4258 14.7027 16.6684 14.404 16.8364 14.012C17.0138 13.62 17.1024 13.1487 17.1024 12.598C17.1024 11.7487 16.9111 11.1 16.5284 10.652C16.1551 10.204 15.6464 9.98 15.0024 9.98C14.5824 9.98 14.2138 10.0827 13.8964 10.288C13.5791 10.484 13.3318 10.778 13.1544 11.17C12.9864 11.5527 12.9024 12.0287 12.9024 12.598C12.9024 13.438 13.0938 14.0867 13.4764 14.544C13.8591 14.992 14.3678 15.216 15.0024 15.216ZM22.2545 16.126C21.8345 16.126 21.4099 16.0747 20.9805 15.972C20.5605 15.8693 20.1685 15.692 19.8045 15.44C19.7112 15.3747 19.6459 15.3 19.6085 15.216C19.5712 15.1227 19.5572 15.034 19.5665 14.95C19.5852 14.8567 19.6225 14.7773 19.6785 14.712C19.7439 14.6467 19.8185 14.6093 19.9025 14.6C19.9959 14.5813 20.0985 14.6 20.2105 14.656C20.5745 14.88 20.9245 15.0387 21.2605 15.132C21.6059 15.216 21.9465 15.258 22.2825 15.258C22.8145 15.258 23.2159 15.16 23.4865 14.964C23.7572 14.768 23.8925 14.502 23.8925 14.166C23.8925 13.9047 23.8039 13.6993 23.6265 13.55C23.4492 13.3913 23.1692 13.27 22.7865 13.186L21.5125 12.906C20.9245 12.7847 20.4859 12.5747 20.1965 12.276C19.9165 11.9773 19.7765 11.59 19.7765 11.114C19.7765 10.694 19.8839 10.3347 20.0985 10.036C20.3225 9.728 20.6352 9.49 21.0365 9.322C21.4379 9.154 21.9045 9.07 22.4365 9.07C22.8472 9.07 23.2345 9.126 23.5985 9.238C23.9719 9.34067 24.3079 9.50867 24.6065 9.742C24.6999 9.80733 24.7605 9.88667 24.7885 9.98C24.8259 10.064 24.8305 10.1527 24.8025 10.246C24.7839 10.33 24.7419 10.4047 24.6765 10.47C24.6112 10.526 24.5319 10.5587 24.4385 10.568C24.3452 10.5773 24.2472 10.5493 24.1445 10.484C23.8645 10.2973 23.5799 10.162 23.2905 10.078C23.0012 9.98467 22.7165 9.938 22.4365 9.938C21.9139 9.938 21.5172 10.0407 21.2465 10.246C20.9759 10.4513 20.8405 10.722 20.8405 11.058C20.8405 11.3193 20.9245 11.534 21.0925 11.702C21.2605 11.87 21.5219 11.9913 21.8765 12.066L23.1505 12.332C23.7572 12.4627 24.2099 12.6727 24.5085 12.962C24.8165 13.242 24.9705 13.6247 24.9705 14.11C24.9705 14.726 24.7232 15.216 24.2285 15.58C23.7339 15.944 23.0759 16.126 22.2545 16.126ZM29.7648 16.126C29.0461 16.126 28.4254 15.986 27.9028 15.706C27.3894 15.4167 26.9881 15.0107 26.6988 14.488C26.4188 13.9653 26.2788 13.34 26.2788 12.612C26.2788 11.9027 26.4188 11.2867 26.6988 10.764C26.9788 10.232 27.3614 9.81667 27.8468 9.518C28.3414 9.21933 28.9108 9.07 29.5548 9.07C30.0121 9.07 30.4228 9.14933 30.7868 9.308C31.1508 9.45733 31.4588 9.67667 31.7108 9.966C31.9721 10.2553 32.1681 10.6053 32.2988 11.016C32.4388 11.4267 32.5088 11.8887 32.5088 12.402C32.5088 12.5513 32.4668 12.6633 32.3828 12.738C32.2988 12.8033 32.1774 12.836 32.0188 12.836H27.1468V12.094H31.7528L31.5288 12.276C31.5288 11.772 31.4541 11.3473 31.3048 11.002C31.1554 10.6473 30.9361 10.3767 30.6468 10.19C30.3668 10.0033 30.0121 9.91 29.5828 9.91C29.1068 9.91 28.7008 10.022 28.3648 10.246C28.0381 10.4607 27.7908 10.764 27.6228 11.156C27.4548 11.5387 27.3708 11.9867 27.3708 12.5V12.584C27.3708 13.4427 27.5761 14.096 27.9868 14.544C28.4068 14.992 28.9994 15.216 29.7648 15.216C30.0821 15.216 30.3948 15.174 30.7028 15.09C31.0201 15.006 31.3281 14.866 31.6268 14.67C31.7574 14.586 31.8741 14.5487 31.9768 14.558C32.0888 14.558 32.1774 14.5907 32.2428 14.656C32.3081 14.712 32.3501 14.7867 32.3688 14.88C32.3968 14.964 32.3874 15.0573 32.3408 15.16C32.3034 15.2627 32.2241 15.3513 32.1028 15.426C31.7948 15.65 31.4308 15.8227 31.0108 15.944C30.5908 16.0653 30.1754 16.126 29.7648 16.126ZM34.7239 16.098C34.5373 16.098 34.3926 16.0467 34.2899 15.944C34.1966 15.8413 34.1499 15.6967 34.1499 15.51V9.672C34.1499 9.48533 34.1966 9.34533 34.2899 9.252C34.3833 9.14933 34.5186 9.098 34.6959 9.098C34.8733 9.098 35.0086 9.14933 35.1019 9.252C35.2046 9.34533 35.2559 9.48533 35.2559 9.672V10.806H35.1159C35.2653 10.2553 35.5499 9.83067 35.9699 9.532C36.3899 9.23333 36.9079 9.07467 37.5239 9.056C37.6639 9.04667 37.7759 9.07933 37.8599 9.154C37.9439 9.21933 37.9906 9.336 37.9999 9.504C38.0093 9.66267 37.9719 9.78867 37.8879 9.882C37.8039 9.97533 37.6733 10.0313 37.4959 10.05L37.2719 10.078C36.6373 10.134 36.1473 10.3393 35.8019 10.694C35.4659 11.0393 35.2979 11.5153 35.2979 12.122V15.51C35.2979 15.6967 35.2466 15.8413 35.1439 15.944C35.0506 16.0467 34.9106 16.098 34.7239 16.098ZM42.1253 16.098C41.9667 16.098 41.8267 16.056 41.7053 15.972C41.584 15.8787 41.4813 15.7387 41.3973 15.552L38.9753 9.896C38.91 9.756 38.8867 9.62533 38.9053 9.504C38.924 9.38267 38.98 9.28467 39.0733 9.21C39.1667 9.13533 39.2973 9.098 39.4653 9.098C39.6147 9.098 39.7313 9.13067 39.8153 9.196C39.8993 9.26133 39.974 9.378 40.0393 9.546L42.3353 15.16H41.9573L44.2953 9.546C44.3607 9.378 44.4353 9.26133 44.5193 9.196C44.6033 9.13067 44.7247 9.098 44.8833 9.098C45.0327 9.098 45.1447 9.13533 45.2193 9.21C45.3033 9.28467 45.35 9.38267 45.3593 9.504C45.378 9.616 45.3593 9.742 45.3033 9.882L42.8533 15.552C42.788 15.7387 42.69 15.8787 42.5593 15.972C42.438 16.056 42.2933 16.098 42.1253 16.098ZM48.8017 16.126C48.335 16.126 47.915 16.0373 47.5417 15.86C47.1777 15.6733 46.8884 15.4213 46.6737 15.104C46.459 14.7867 46.3517 14.432 46.3517 14.04C46.3517 13.536 46.4777 13.1393 46.7297 12.85C46.991 12.5607 47.4157 12.3553 48.0037 12.234C48.601 12.1127 49.413 12.052 50.4397 12.052H51.0697V12.794H50.4537C49.6977 12.794 49.1004 12.8313 48.6617 12.906C48.2324 12.9713 47.929 13.088 47.7517 13.256C47.5837 13.424 47.4997 13.662 47.4997 13.97C47.4997 14.3527 47.6304 14.6653 47.8917 14.908C48.1624 15.1507 48.5264 15.272 48.9837 15.272C49.357 15.272 49.6837 15.1833 49.9637 15.006C50.253 14.8287 50.477 14.586 50.6357 14.278C50.8037 13.97 50.8877 13.6153 50.8877 13.214V11.618C50.8877 11.0393 50.771 10.624 50.5377 10.372C50.3044 10.1107 49.9217 9.98 49.3897 9.98C49.063 9.98 48.7364 10.022 48.4097 10.106C48.083 10.19 47.7377 10.3253 47.3737 10.512C47.243 10.5773 47.131 10.6007 47.0377 10.582C46.9444 10.554 46.8697 10.5027 46.8137 10.428C46.7577 10.3533 46.725 10.2693 46.7157 10.176C46.7064 10.0733 46.725 9.97533 46.7717 9.882C46.8277 9.78867 46.9117 9.714 47.0237 9.658C47.4344 9.45267 47.8404 9.30333 48.2417 9.21C48.643 9.11667 49.0257 9.07 49.3897 9.07C49.9777 9.07 50.463 9.168 50.8457 9.364C51.2284 9.55067 51.513 9.84 51.6997 10.232C51.8864 10.6147 51.9797 11.1093 51.9797 11.716V15.51C51.9797 15.6967 51.933 15.8413 51.8397 15.944C51.7557 16.0467 51.6297 16.098 51.4617 16.098C51.2844 16.098 51.149 16.0467 51.0557 15.944C50.9624 15.8413 50.9157 15.6967 50.9157 15.51V14.418H51.0417C50.967 14.7727 50.8224 15.076 50.6077 15.328C50.4024 15.58 50.1457 15.776 49.8377 15.916C49.5297 16.056 49.1844 16.126 48.8017 16.126ZM54.6435 16.098C54.4569 16.098 54.3169 16.0467 54.2235 15.944C54.1302 15.8413 54.0835 15.6967 54.0835 15.51V9.672C54.0835 9.48533 54.1302 9.34533 54.2235 9.252C54.3169 9.14933 54.4522 9.098 54.6295 9.098C54.8069 9.098 54.9422 9.14933 55.0355 9.252C55.1382 9.34533 55.1895 9.48533 55.1895 9.672V10.876L55.0355 10.708C55.2315 10.1667 55.5489 9.76067 55.9875 9.49C56.4355 9.21 56.9489 9.07 57.5275 9.07C58.0689 9.07 58.5169 9.168 58.8715 9.364C59.2355 9.56 59.5062 9.85867 59.6835 10.26C59.8609 10.652 59.9495 11.1513 59.9495 11.758V15.51C59.9495 15.6967 59.8982 15.8413 59.7955 15.944C59.7022 16.0467 59.5669 16.098 59.3895 16.098C59.2029 16.098 59.0582 16.0467 58.9555 15.944C58.8622 15.8413 58.8155 15.6967 58.8155 15.51V11.828C58.8155 11.1933 58.6895 10.7313 58.4375 10.442C58.1949 10.1433 57.8029 9.994 57.2615 9.994C56.6362 9.994 56.1369 10.19 55.7635 10.582C55.3995 10.9647 55.2175 11.478 55.2175 12.122V15.51C55.2175 15.902 55.0262 16.098 54.6435 16.098ZM64.7706 16.126C64.2386 16.126 63.7906 16.0327 63.4266 15.846C63.0719 15.65 62.8059 15.37 62.6286 15.006C62.4512 14.6327 62.3626 14.18 62.3626 13.648V10.078H61.4246C61.2659 10.078 61.1446 10.0407 61.0606 9.966C60.9766 9.882 60.9346 9.77 60.9346 9.63C60.9346 9.49 60.9766 9.38267 61.0606 9.308C61.1446 9.23333 61.2659 9.196 61.4246 9.196H62.3626V7.586C62.3626 7.39933 62.4139 7.25933 62.5166 7.166C62.6192 7.06333 62.7592 7.012 62.9366 7.012C63.1139 7.012 63.2492 7.06333 63.3426 7.166C63.4452 7.25933 63.4966 7.39933 63.4966 7.586V9.196H65.2606C65.4192 9.196 65.5406 9.23333 65.6246 9.308C65.7086 9.38267 65.7506 9.49 65.7506 9.63C65.7506 9.77 65.7086 9.882 65.6246 9.966C65.5406 10.0407 65.4192 10.078 65.2606 10.078H63.4966V13.536C63.4966 14.068 63.6086 14.474 63.8326 14.754C64.0566 15.0247 64.4206 15.16 64.9246 15.16C65.1019 15.16 65.2512 15.1413 65.3726 15.104C65.5032 15.0667 65.6106 15.048 65.6946 15.048C65.7786 15.0387 65.8486 15.0667 65.9046 15.132C65.9606 15.1973 65.9886 15.3093 65.9886 15.468C65.9886 15.58 65.9652 15.6827 65.9186 15.776C65.8812 15.8693 65.8112 15.9347 65.7086 15.972C65.5966 16.0093 65.4472 16.042 65.2606 16.07C65.0832 16.1073 64.9199 16.126 64.7706 16.126Z" fill="#4F481F"/>
</g>
<defs>
<filter id="filter0_i_1_216" x="0" y="6.00403" width="212" height="24.996" filterUnits="userSpaceOnUse" color-interpolation-filters="sRGB">
<feFlood flood-opacity="0" result="BackgroundImageFix"/>
<feBlend mode="normal" in="SourceGraphic" in2="BackgroundImageFix" result="shape"/>
<feColorMatrix in="SourceAlpha" type="matrix" values="0 0 0 0 0 0 0 0 0 0 0 0 0 0 0 0 0 0 127 0" result="hardAlpha"/>
<feOffset dy="1"/>
<feGaussianBlur stdDeviation="2"/>
<feComposite in2="hardAlpha" operator="arithmetic" k2="-1" k3="1"/>
<feColorMatrix type="matrix" values="0 0 0 0 0 0 0 0 0 0 0 0 0 0 0 0 0 0 0.39 0"/>
<feBlend mode="normal" in2="shape" result="effect1_innerShadow_1_216"/>
</filter>
</defs>
</svg>
